<?xml version="1.0" standalone="no"?>
<!DOCTYPE svg PUBLIC "-//W3C//DTD SVG 20010904//EN"
 "http://www.w3.org/TR/2001/REC-SVG-20010904/DTD/svg10.dtd">
<svg version="1.0" xmlns="http://www.w3.org/2000/svg"
 width="500.000000pt" height="500.000000pt" viewBox="0 0 500.000000 500.000000"
 preserveAspectRatio="xMidYMid meet">

<g transform="translate(0.000000,500.000000) scale(0.100000,-0.100000)"
fill="#000000" stroke="none">
<path d="M2380 4721 c-25 -5 -67 -11 -95 -15 -128 -19 -430 -97 -449 -117 -6
-5 -11 -15 -12 -23 -3 -18 10 -16 166 29 69 19 133 34 143 31 9 -2 15 -1 13 3
-3 4 22 12 55 17 37 6 58 7 56 1 -2 -6 -21 -12 -42 -14 -38 -4 -64 -17 -54
-27 3 -3 29 1 58 9 72 19 87 12 60 -26 -15 -21 -26 -28 -40 -24 -20 7 -174
-24 -165 -32 2 -3 36 2 75 11 85 19 91 20 91 2 0 -9 -22 -18 -62 -26 -74 -14
-335 -97 -342 -109 -3 -4 31 5 76 21 45 16 138 43 207 60 69 17 129 36 132 41
4 6 21 1 41 -11 l35 -22 26 28 26 27 236 -5 c130 -3 243 -2 250 2 8 5 22 -3
39 -22 l26 -31 29 22 c22 16 34 19 43 12 7 -6 58 -20 113 -33 55 -12 151 -40
213 -62 62 -22 120 -37 127 -34 9 3 21 -5 31 -22 8 -15 12 -18 9 -7 -4 11 -7
24 -8 29 -1 4 14 14 33 21 19 8 30 14 23 14 -6 1 -23 -3 -38 -9 -20 -8 -27 -7
-31 5 -13 32 -406 152 -458 139 -29 -7 -68 32 -46 46 9 6 19 5 24 0 5 -5 17
-5 29 1 13 8 17 8 13 1 -10 -17 10 -23 23 -8 10 12 6 15 -18 21 -17 3 -36 3
-42 -1 -8 -4 -9 -3 -5 4 5 8 0 11 -16 8 -13 -2 -22 -9 -20 -16 1 -6 -5 -10
-15 -8 -10 2 -19 9 -19 16 -3 23 -4 24 -17 13 -8 -6 -17 -8 -21 -4 -15 15
-106 25 -106 11 0 -7 -5 -7 -13 1 -8 6 -18 7 -22 3 -5 -4 -4 0 0 8 8 13 6 13
-7 2 -9 -7 -19 -9 -22 -4 -3 5 -21 7 -40 6 -21 -2 -36 1 -36 8 0 13 154 4 310
-18 140 -20 388 -85 512 -133 101 -40 118 -42 118 -16 0 24 -216 106 -380 145
-233 55 -295 62 -540 65 -129 2 -255 0 -280 -4z m-32 -51 c19 0 32 -3 28 -7
-4 -4 -15 -8 -23 -8 -9 0 -18 -5 -20 -10 -2 -6 14 -10 36 -10 34 0 38 2 30 17
-14 27 -12 28 44 28 41 0 54 -4 54 -15 0 -10 -4 -12 -12 -5 -7 6 -20 8 -29 4
-35 -13 -12 -20 68 -19 78 0 83 1 74 18 -6 12 -13 15 -21 9 -7 -5 -20 -8 -30
-7 -9 2 -15 -1 -11 -6 3 -5 1 -9 -4 -9 -6 0 -13 7 -16 16 -5 13 -2 15 14 11
11 -3 20 -1 20 4 0 5 15 9 34 9 25 0 40 -7 51 -22 13 -17 18 -19 22 -9 4 11 7
11 13 0 9 -14 60 -20 60 -6 0 4 9 3 21 -3 11 -7 23 -9 26 -6 4 3 12 1 19 -5 8
-7 14 -7 19 1 5 8 11 7 23 -2 12 -10 14 -10 8 0 -9 15 -1 15 25 1 15 -8 24 -7
37 3 10 8 13 9 9 1 -4 -6 -3 -15 3 -18 6 -4 0 -15 -15 -27 -22 -17 -28 -18
-42 -6 -22 18 -456 19 -474 1 -15 -15 -92 25 -84 45 3 9 -1 11 -15 7 -11 -4
-20 -2 -20 4 0 6 7 11 15 11 8 0 15 8 16 18 0 10 3 12 6 5 2 -7 21 -13 41 -13z
m1 -126 c-27 -28 -28 -29 -57 -6 l-23 18 21 27 22 27 29 -21 30 -21 -22 -24z
m631 16 c0 -4 -12 -16 -27 -25 -25 -17 -27 -17 -44 6 -24 31 -24 31 9 51 26
17 28 17 45 -3 9 -12 17 -25 17 -29z m-211 32 c47 -4 86 -11 88 -17 3 -11
-452 -13 -463 -2 -20 20 209 31 375 19z m348 -47 c116 -26 343 -107 343 -121
0 -19 0 -19 -130 27 -63 22 -160 51 -214 63 -55 13 -102 28 -104 34 -5 16 23
15 105 -3z"/>
<path d="M3090 4620 c-8 -5 -11 -12 -7 -16 4 -4 13 -2 19 4 15 15 7 24 -12 12z"/>
<path d="M2091 4603 c-16 -17 -6 -32 10 -16 6 6 17 9 24 7 7 -3 16 -1 19 4 9
16 -39 20 -53 5z"/>
<path d="M3130 4610 c-8 -5 -12 -12 -9 -15 4 -3 12 1 19 10 14 17 11 19 -10 5z"/>
<path d="M3170 4600 c-9 -6 -10 -10 -3 -10 6 0 15 5 18 10 8 12 4 12 -15 0z"/>
<path d="M2057 4593 c-4 -3 -7 -11 -7 -17 0 -6 5 -5 12 2 6 6 9 14 7 17 -3 3
-9 2 -12 -2z"/>
<path d="M3213 4593 c-7 -2 -13 -9 -13 -15 0 -6 6 -6 15 2 14 12 19 7 16 -13
-1 -5 3 -6 9 -2 8 5 7 11 -1 21 -6 8 -12 14 -13 13 0 0 -7 -3 -13 -6z"/>
<path d="M2020 4581 c0 -7 -5 -9 -12 -5 -7 5 -8 3 -3 -5 5 -9 10 -10 18 -2 6
6 8 14 4 18 -4 3 -7 1 -7 -6z"/>
<path d="M3270 4558 c0 -4 4 -8 9 -8 6 0 12 4 15 8 3 5 -1 9 -9 9 -8 0 -15 -4
-15 -9z"/>
<path d="M1920 4550 c0 -5 5 -10 11 -10 5 0 7 5 4 10 -3 6 -8 10 -11 10 -2 0
-4 -4 -4 -10z"/>
<path d="M3320 4550 c0 -14 50 -24 61 -13 7 7 2 9 -15 8 -14 -2 -26 1 -26 6 0
5 -4 9 -10 9 -5 0 -10 -4 -10 -10z"/>
<path d="M3403 4533 c-7 -3 -13 -9 -13 -15 0 -6 6 -6 15 2 12 10 16 9 21 -4 6
-16 24 -22 24 -8 0 12 -34 29 -47 25z"/>
<path d="M1945 4499 c-49 -17 -94 -34 -99 -39 -5 -5 38 7 95 26 125 41 128 42
109 43 -8 0 -55 -13 -105 -30z"/>
<path d="M2353 4502 c-21 -27 -21 -27 -52 -9 -30 18 -32 18 -56 -1 -14 -11
-42 -23 -62 -26 -21 -4 -46 -9 -55 -12 -19 -6 -58 -63 -58 -85 0 -8 12 5 25
28 24 40 65 63 113 63 8 0 27 8 42 17 27 15 30 15 56 -2 27 -18 28 -18 52 10
21 25 27 27 44 16 14 -8 39 -10 81 -6 60 6 63 6 91 -24 17 -17 34 -31 40 -31
5 0 -5 15 -23 34 -32 32 -38 35 -110 38 -42 2 -83 7 -91 10 -9 4 -23 -3 -37
-20z"/>
<path d="M2855 4520 c-3 -5 -42 -10 -85 -10 -75 0 -79 -1 -105 -31 -36 -43
-22 -50 19 -10 32 31 35 32 95 25 45 -5 65 -3 77 7 14 12 19 10 38 -14 26 -32
30 -33 66 -7 28 20 29 20 39 2 6 -12 31 -22 74 -31 57 -11 67 -17 77 -42 7
-15 19 -34 27 -41 9 -7 7 4 -8 34 -22 45 -24 47 -86 58 -43 8 -68 19 -76 31
-15 24 -22 24 -57 -1 l-28 -20 -22 30 c-22 31 -35 37 -45 20z"/>
<path d="M3463 4493 c0 -8 6 -9 19 -2 10 5 18 11 18 12 0 2 -8 3 -18 3 -10 0
-19 -6 -19 -13z"/>
<path d="M3586 4495 c-3 -9 1 -18 9 -21 8 -4 12 -11 8 -17 -3 -6 -1 -7 5 -3
12 7 81 -25 173 -80 66 -39 69 -40 69 -15 0 24 -5 28 -127 95 -108 59 -127 65
-137 41z"/>
<path d="M3510 4476 c7 -7 13 -7 20 0 6 6 3 10 -10 10 -13 0 -16 -4 -10 -10z"/>
<path d="M3535 4460 c-3 -5 -2 -10 4 -10 5 0 13 5 16 10 3 6 2 10 -4 10 -5 0
-13 -4 -16 -10z"/>
<path d="M3560 4417 c0 -5 5 -18 11 -29 9 -16 8 -23 -2 -29 -11 -7 -10 -9 4
-9 9 0 17 -6 17 -14 0 -8 9 -17 19 -21 11 -3 68 -35 127 -70 59 -36 109 -63
112 -61 5 5 -92 68 -178 114 -69 38 -88 55 -66 60 16 4 97 -35 171 -82 75 -48
83 -52 65 -34 -29 30 -203 128 -226 128 -15 0 -29 10 -38 28 -8 15 -15 23 -16
19z"/>
<path d="M1895 4380 c-50 -23 -43 -25 18 -4 45 15 49 15 83 -5 20 -12 39 -20
41 -17 8 8 -61 46 -82 45 -11 0 -38 -9 -60 -19z"/>
<path d="M3242 4378 c-45 -28 -33 -34 17 -9 l40 21 56 -21 c32 -12 66 -18 80
-15 13 3 26 1 28 -4 3 -6 4 -5 3 2 -2 8 -19 13 -42 14 -21 0 -56 8 -78 17 -48
21 -63 20 -104 -5z"/>
<path d="M3470 4325 c0 -26 17 -36 45 -25 32 12 55 7 55 -13 0 -7 20 -23 45
-35 55 -27 60 -20 6 8 -22 11 -42 29 -46 40 -7 22 -21 25 -59 10 -20 -7 -27
-6 -35 8 -6 9 -10 13 -11 7z"/>
<path d="M3686 4202 c8 -15 14 -38 14 -51 0 -13 3 -22 6 -18 10 10 -7 85 -21
91 -11 4 -10 0 1 -22z"/>
<path d="M3760 4120 c-18 -6 -9 -7 31 -6 31 0 55 4 52 9 -5 9 -50 8 -83 -3z"/>
<path d="M3803 4021 c-53 -33 -206 -200 -158 -173 11 6 36 29 57 50 58 64 124
104 156 97 18 -3 64 -45 131 -116 103 -110 103 -110 85 -132 l-19 -22 22 19
c19 15 25 17 38 6 9 -8 13 -21 10 -34 -5 -19 -5 -19 5 -3 9 13 15 15 31 7 10
-6 19 -17 19 -25 0 -18 -72 -76 -130 -105 -25 -12 -66 -38 -92 -57 l-48 -34
-59 45 c-32 25 -78 69 -102 98 -24 29 -54 64 -67 78 -13 14 -39 57 -58 95 -40
80 -55 95 -99 95 -23 0 -43 -12 -78 -45 -59 -56 -54 -59 8 -5 71 62 108 51
140 -40 15 -42 15 -46 -5 -75 l-21 -30 23 25 23 26 27 -41 27 -40 -27 -30 -27
-30 30 27 30 26 53 -59 c29 -33 86 -87 127 -119 41 -33 82 -71 91 -85 21 -32
14 -40 -75 -99 -37 -25 -75 -54 -85 -65 -28 -31 -51 -26 -70 14 -9 19 -21 35
-26 35 -5 0 -24 -13 -42 -28 -18 -16 -54 -43 -79 -60 -121 -81 -302 -335 -369
-514 -49 -133 -52 -160 -60 -503 -7 -293 -10 -339 -30 -415 -60 -232 -241
-506 -438 -662 l-73 -58 46 0 c44 0 48 3 144 98 151 150 289 373 339 547 40
138 45 201 47 530 1 292 3 326 22 385 71 227 234 471 389 585 34 26 68 53 75
61 18 22 33 16 50 -19 9 -17 23 -33 32 -35 9 -2 38 14 64 36 27 22 67 50 91
61 89 45 105 91 51 147 l-31 32 38 24 c22 14 65 35 97 47 78 32 145 77 162
112 21 40 19 49 -12 50 -17 1 -21 3 -10 6 24 6 21 18 -7 31 -19 8 -26 8 -30
-1 -3 -8 -5 -8 -5 1 -1 22 -220 249 -256 266 -42 20 -53 20 -92 -3z"/>
<path d="M3835 3970 c-24 -10 -93 -80 -79 -80 6 0 24 15 40 33 16 17 39 37 49
44 23 14 19 15 -10 3z"/>
<path d="M3871 3910 c-13 -11 -19 -20 -14 -20 6 0 18 9 28 20 23 25 17 25 -14
0z"/>
<path d="M3830 3835 c-14 -8 -20 -14 -15 -14 6 0 21 6 35 14 14 8 21 14 15 14
-5 0 -21 -6 -35 -14z"/>
<path d="M3888 3733 c7 -3 16 -2 19 1 4 3 -2 6 -13 5 -11 0 -14 -3 -6 -6z"/>
<path d="M3422 3680 c-78 -61 -82 -117 -12 -165 22 -16 56 -54 75 -86 54 -88
87 -119 127 -119 42 0 94 32 116 70 9 17 25 33 35 36 10 3 17 8 14 10 -10 10
-38 -10 -57 -41 -14 -22 -36 -40 -64 -50 -54 -21 -80 -10 -125 53 l-31 42 37
40 c21 22 43 40 49 40 6 0 18 7 25 17 13 15 12 15 -11 2 -14 -8 -42 -30 -63
-49 l-37 -34 -29 34 c-16 19 -27 38 -24 42 2 4 -2 5 -10 3 -17 -7 -67 38 -67
60 0 30 29 71 69 100 38 25 48 35 37 35 -2 0 -27 -18 -54 -40z"/>
<path d="M3664 3418 l-19 -23 23 19 c12 11 22 21 22 23 0 8 -8 2 -26 -19z"/>
<path d="M2940 3390 c-30 -16 -51 -29 -47 -30 10 0 107 49 107 55 0 7 1 7 -60
-25z"/>
<path d="M1777 3368 c-193 -16 -395 -89 -572 -207 -81 -54 -254 -216 -335
-316 -142 -174 -237 -403 -265 -637 -5 -40 -4 -58 4 -58 6 0 11 -5 11 -11 0
-5 -4 -7 -10 -4 -5 3 -10 -3 -10 -15 0 -14 4 -19 12 -14 8 5 9 2 2 -12 -15
-32 -8 -222 10 -248 8 -13 13 -32 10 -42 -3 -11 9 -56 26 -100 23 -62 37 -84
57 -93 14 -6 28 -10 31 -7 2 3 -7 34 -21 68 -49 123 -72 258 -72 423 0 347
112 604 378 874 159 161 300 253 489 320 220 77 412 82 810 20 70 -10 166 -18
215 -18 l88 2 -115 8 c-63 5 -167 17 -230 28 -104 19 -263 37 -380 43 -25 2
-85 0 -133 -4z"/>
<path d="M2850 3350 c-8 -5 -10 -10 -5 -10 6 0 17 5 25 10 8 5 11 10 5 10 -5
0 -17 -5 -25 -10z"/>
<path d="M2745 3320 c-16 -4 -47 -8 -67 -9 -21 0 -38 -5 -38 -9 0 -10 111 5
144 18 26 11 2 10 -39 0z"/>
<path d="M877 2543 c-15 -14 -6 -24 16 -18 35 11 44 25 16 25 -14 0 -29 -3
-32 -7z"/>
<path d="M1089 2483 c37 -36 53 -62 65 -102 20 -70 21 -241 1 -335 -8 -38 -13
-71 -11 -73 6 -6 36 76 51 141 18 73 19 186 4 257 -12 55 -60 119 -110 145
-50 25 -50 15 0 -33z"/>
<path d="M900 2479 c-99 -40 -161 -216 -161 -458 1 -371 201 -710 542 -914 81
-48 120 -66 134 -62 11 4 66 9 122 12 l102 6 -79 38 c-166 80 -280 172 -355
289 -102 158 -153 373 -125 530 46 265 50 381 15 451 -48 94 -124 136 -195
108z"/>
<path d="M4106 1853 c-6 -15 -8 -15 -16 -3 -9 13 -10 13 -10 0 0 -8 -9 -21
-20 -28 -11 -7 -20 -18 -20 -26 0 -19 27 -28 37 -13 18 29 42 81 39 84 -2 2
-7 -4 -10 -14z"/>
<path d="M704 1567 c7 -18 20 -47 29 -63 l16 -29 16 38 c18 44 14 54 -31 73
-45 19 -46 19 -30 -19z"/>
<path d="M4305 1530 c-3 -6 1 -7 9 -4 18 7 21 14 7 14 -6 0 -13 -4 -16 -10z"/>
<path d="M772 1498 c-10 -28 -8 -37 21 -92 17 -33 46 -74 62 -91 17 -16 36
-42 44 -58 20 -37 145 -157 166 -157 9 0 13 -5 10 -10 -3 -6 1 -13 10 -17 9
-3 31 -19 48 -34 17 -15 49 -38 71 -50 l41 -22 33 20 33 20 -48 28 c-178 103
-344 270 -446 448 -16 26 -29 47 -30 47 -2 0 -8 -14 -15 -32z"/>
<path d="M4403 1271 c-45 -8 -73 -26 -73 -47 0 -19 7 -18 41 7 17 12 48 23 69
26 22 3 37 9 34 14 -6 10 -9 10 -71 0z"/>
<path d="M4192 1186 c-11 -6 -39 -33 -63 -61 -23 -27 -63 -71 -87 -97 -41 -43
-48 -68 -18 -68 7 0 41 36 76 81 60 76 127 129 163 129 20 0 23 19 5 21 -7 1
-23 3 -34 4 -12 1 -31 -3 -42 -9z"/>
<path d="M4085 1180 c3 -5 2 -10 -3 -10 -14 0 -162 -147 -155 -154 12 -12 21
-6 76 47 29 29 75 67 100 84 26 17 44 33 40 37 -11 10 -65 7 -58 -4z"/>
<path d="M4414 1162 c1 -35 21 -58 30 -36 3 9 12 14 19 11 6 -2 18 3 25 12 10
12 15 13 18 4 4 -10 9 -9 21 3 8 8 14 16 12 18 -2 2 -32 6 -65 9 l-62 6 2 -27z"/>
<path d="M4282 1165 c-11 -21 -127 -150 -179 -201 l-43 -41 23 -21 c28 -26 38
-19 95 69 55 85 80 108 144 130 29 10 53 21 52 26 -1 9 -63 53 -75 53 -4 0
-12 -7 -17 -15z"/>
<path d="M2517 1107 c-38 -23 -64 -43 -58 -45 10 -3 131 74 131 83 0 7 1 8
-73 -38z"/>
<path d="M4457 997 c-35 -22 -62 -31 -101 -33 -56 -3 -158 -42 -172 -67 -5 -8
-22 -19 -39 -26 -25 -9 -14 -10 65 -7 101 4 201 31 253 68 42 30 27 31 -32 3
-96 -47 -124 -40 -31 7 46 24 91 53 98 66 18 27 18 27 -41 -11z"/>
<path d="M4698 875 c-57 -43 -207 -117 -221 -108 -5 3 -7 1 -4 -4 9 -14 -35
-25 -59 -16 -11 4 -15 3 -11 -4 5 -8 -5 -10 -28 -9 -19 2 -44 -4 -56 -12 -20
-14 -20 -16 -6 -27 13 -10 29 -8 74 6 32 10 83 23 113 30 79 16 131 41 179 85
36 32 80 94 68 94 -2 0 -25 -16 -49 -35z"/>
<path d="M4090 841 c0 -5 6 -14 14 -20 7 -6 28 -42 45 -81 18 -39 39 -70 47
-70 10 0 13 7 8 24 -4 18 -1 25 13 29 12 3 10 4 -4 2 -16 -1 -25 5 -31 24 l-9
27 71 2 c115 5 266 41 266 64 0 12 -19 9 -65 -8 -37 -14 -127 -23 -238 -24
-35 0 -46 -3 -42 -12 4 -7 -5 2 -20 20 -25 30 -55 43 -55 23z"/>
<path d="M1830 706 c-84 -23 -150 -72 -150 -111 0 -21 28 -55 44 -55 5 0 -2 9
-15 19 l-24 19 21 29 c12 15 34 36 50 45 44 26 141 48 211 48 52 0 64 -3 73
-20 8 -16 6 -24 -11 -41 -23 -23 -79 -49 -106 -49 -10 0 -24 -4 -32 -9 -11 -7
-5 -20 32 -61 51 -57 56 -73 31 -110 l-17 -25 27 26 c18 17 28 37 28 59 1 28
-6 40 -43 72 -24 21 -37 38 -29 38 35 0 94 23 116 45 29 29 30 49 4 75 -17 17
-33 20 -92 19 -40 0 -93 -6 -118 -13z"/>
<path d="M2583 684 c-18 -20 -54 -78 -79 -130 -44 -92 -99 -154 -124 -139 -15
9 -12 24 15 83 22 47 27 52 57 53 32 1 32 2 6 8 l-28 6 20 33 c24 39 24 42 5
42 -8 0 -24 -18 -35 -40 -11 -22 -27 -40 -35 -40 -8 0 -15 -4 -15 -10 0 -5 5
-10 11 -10 13 0 -23 -51 -68 -96 -59 -59 -78 -35 -39 51 23 50 28 55 58 56 32
1 32 2 6 8 l-28 6 20 33 c24 39 24 42 5 42 -8 0 -24 -18 -35 -40 -11 -22 -27
-40 -35 -40 -8 0 -15 -4 -15 -10 0 -5 5 -10 11 -10 13 0 -32 -65 -63 -92 -11
-10 -17 -18 -12 -18 4 0 17 9 28 19 21 20 21 20 21 -12 0 -45 30 -47 80 -4
l40 34 0 -31 c0 -43 28 -45 77 -5 23 18 38 26 36 18 -8 -23 11 -49 36 -49 12
0 33 11 46 25 28 30 40 32 40 6 0 -10 7 -22 16 -25 24 -9 25 -8 12 13 -9 15
-7 25 12 56 20 33 72 75 93 75 20 0 3 -32 -30 -55 -45 -30 -34 -34 13 -4 40
24 49 69 13 69 -32 0 -59 -18 -131 -86 -36 -35 -73 -64 -82 -64 -25 0 -21 59
7 88 12 14 16 22 10 18 -18 -10 -16 -2 13 57 33 64 91 137 110 137 23 0 16
-21 -24 -77 -20 -28 -48 -66 -61 -85 -13 -18 -2 -9 25 21 64 71 84 101 84 129
0 36 -46 29 -87 -14z"/>
<path d="M3072 705 c-62 -19 -92 -42 -92 -69 0 -30 15 -42 85 -66 60 -21 95
-44 95 -65 0 -37 -118 -95 -194 -95 -42 0 -76 18 -76 40 0 5 12 23 27 41 24
28 25 31 6 20 -50 -26 -70 -91 -34 -111 51 -27 191 7 249 60 59 53 36 99 -69
136 -60 22 -77 38 -59 58 19 24 93 48 136 44 35 -3 39 -6 36 -28 -2 -19 0 -22
8 -10 35 54 -21 76 -118 45z"/>
<path d="M1865 647 c-24 -21 -125 -218 -125 -244 0 -18 25 -16 40 2 11 14 14
13 27 -5 22 -31 33 -24 16 11 -14 29 -16 29 -34 13 -36 -33 -34 -2 6 74 22 42
59 96 82 119 29 30 37 43 27 47 -7 3 -25 -5 -39 -17z"/>
<path d="M2079 529 c-70 -74 -33 -165 46 -113 13 9 28 13 33 10 6 -3 10 4 10
17 1 12 4 37 8 55 4 21 2 32 -5 32 -6 0 -11 -13 -11 -30 0 -16 -4 -30 -10 -30
-5 0 -10 -6 -10 -13 0 -20 -33 -47 -58 -47 -26 0 -29 27 -8 68 19 37 62 76 75
67 6 -3 11 -1 11 4 0 23 -53 10 -81 -20z"/>
<path d="M3248 527 c-66 -50 -77 -115 -22 -125 18 -4 18 -3 1 10 -14 11 -16
19 -9 38 17 42 94 111 109 97 11 -12 -7 -37 -39 -57 -39 -23 -30 -27 12 -5 16
8 34 24 40 35 27 50 -30 54 -92 7z"/>
<path d="M3429 531 c-24 -16 -60 -46 -80 -68 -19 -22 -51 -44 -70 -50 -22 -7
-27 -11 -14 -12 11 0 33 8 50 19 28 18 30 18 49 2 11 -9 16 -12 12 -5 -19 33
63 118 127 133 l32 8 -31 1 c-18 1 -48 -11 -75 -28z"/>
<path d="M3494 499 c-16 -17 -47 -44 -68 -60 -23 -17 -32 -29 -23 -29 9 0 32
14 51 30 l35 31 3 -33 c4 -47 33 -48 86 -3 23 20 42 40 42 44 0 4 -18 -10 -41
-31 -22 -21 -46 -37 -52 -35 -14 5 -11 67 3 81 12 12 13 36 2 36 -5 0 -21 -14
-38 -31z"/>
<path d="M2744 459 c-10 -12 -37 -30 -59 -40 -22 -10 -34 -19 -27 -19 21 0 65
26 91 54 14 14 22 26 19 26 -3 0 -13 -10 -24 -21z"/>
<path d="M1863 373 c9 -2 23 -2 30 0 6 3 -1 5 -18 5 -16 0 -22 -2 -12 -5z"/>
<path d="M1128 222 c53 -73 133 -136 163 -127 20 7 19 8 -12 27 -18 11 -56 44
-85 74 -58 59 -101 77 -66 26z"/>
</g>
</svg>
